<mxfile host="app.diagrams.net" modified="2021-02-25T15:15:20.283Z" agent="5.0 (Windows NT 10.0; Win64; x64) AppleWebKit/537.36 (KHTML, like Gecko) Chrome/88.0.4324.190 Safari/537.36" etag="cyptmj_-qbxcsA7DneMn" version="14.4.3" type="github">
  <diagram name="Game Plan" id="74b105a0-9070-1c63-61bc-23e55f88626e">
    <mxGraphModel dx="2044" dy="2332" grid="1" gridSize="10" guides="1" tooltips="1" connect="1" arrows="1" fold="1" page="1" pageScale="1.5" pageWidth="1169" pageHeight="826" background="none" math="0" shadow="0">
      <root>
        <mxCell id="0" style=";html=1;" />
        <mxCell id="1" style=";html=1;" parent="0" />
        <mxCell id="10b056a9c633e61c-28" style="edgeStyle=orthogonalEdgeStyle;rounded=0;html=1;endArrow=block;endFill=1;jettySize=auto;orthogonalLoop=1;strokeWidth=2;startArrow=none;startFill=0;" parent="1" edge="1">
          <mxGeometry relative="1" as="geometry">
            <Array as="points">
              <mxPoint x="1267" y="310" />
              <mxPoint x="247" y="310" />
            </Array>
            <mxPoint x="247.0588235294117" y="590" as="targetPoint" />
          </mxGeometry>
        </mxCell>
        <mxCell id="0ZdJZjY-kdPbD8yLz9k7-29" style="edgeStyle=orthogonalEdgeStyle;rounded=0;orthogonalLoop=1;jettySize=auto;html=1;exitX=0.5;exitY=1;exitDx=0;exitDy=0;" parent="1" source="0ZdJZjY-kdPbD8yLz9k7-2" target="0ZdJZjY-kdPbD8yLz9k7-3" edge="1">
          <mxGeometry relative="1" as="geometry" />
        </mxCell>
        <mxCell id="0ZdJZjY-kdPbD8yLz9k7-2" value="Start Single Turn" style="rounded=1;whiteSpace=wrap;html=1;fillColor=#fff2cc;strokeColor=#d6b656;" parent="1" vertex="1">
          <mxGeometry x="845" y="88" width="120" height="60" as="geometry" />
        </mxCell>
        <mxCell id="0ZdJZjY-kdPbD8yLz9k7-8" value="Yes" style="edgeStyle=orthogonalEdgeStyle;rounded=0;orthogonalLoop=1;jettySize=auto;html=1;entryX=0.5;entryY=0;entryDx=0;entryDy=0;exitX=0;exitY=0.5;exitDx=0;exitDy=0;" parent="1" source="0ZdJZjY-kdPbD8yLz9k7-3" target="0ZdJZjY-kdPbD8yLz9k7-7" edge="1">
          <mxGeometry relative="1" as="geometry" />
        </mxCell>
        <mxCell id="0ZdJZjY-kdPbD8yLz9k7-23" style="edgeStyle=orthogonalEdgeStyle;rounded=0;orthogonalLoop=1;jettySize=auto;html=1;entryX=0.5;entryY=0;entryDx=0;entryDy=0;exitX=1;exitY=0.5;exitDx=0;exitDy=0;" parent="1" source="0ZdJZjY-kdPbD8yLz9k7-3" target="0ZdJZjY-kdPbD8yLz9k7-11" edge="1">
          <mxGeometry relative="1" as="geometry" />
        </mxCell>
        <mxCell id="0ZdJZjY-kdPbD8yLz9k7-26" value="No" style="edgeLabel;html=1;align=center;verticalAlign=middle;resizable=0;points=[];" parent="0ZdJZjY-kdPbD8yLz9k7-23" vertex="1" connectable="0">
          <mxGeometry x="0.0121" y="2" relative="1" as="geometry">
            <mxPoint x="-2" y="14.17" as="offset" />
          </mxGeometry>
        </mxCell>
        <mxCell id="0ZdJZjY-kdPbD8yLz9k7-3" value="Evaluate:&lt;br&gt;Minimum sum for yaniv?" style="shape=process;whiteSpace=wrap;html=1;backgroundOutline=1;rounded=1;fillColor=#ffe6cc;strokeColor=#d79b00;" parent="1" vertex="1">
          <mxGeometry x="844" y="200" width="123" height="60" as="geometry" />
        </mxCell>
        <mxCell id="0ZdJZjY-kdPbD8yLz9k7-10" value="" style="edgeStyle=orthogonalEdgeStyle;rounded=0;orthogonalLoop=1;jettySize=auto;html=1;" parent="1" source="0ZdJZjY-kdPbD8yLz9k7-7" target="0ZdJZjY-kdPbD8yLz9k7-9" edge="1">
          <mxGeometry relative="1" as="geometry" />
        </mxCell>
        <mxCell id="0ZdJZjY-kdPbD8yLz9k7-25" style="edgeStyle=orthogonalEdgeStyle;rounded=0;orthogonalLoop=1;jettySize=auto;html=1;entryX=0;entryY=0.5;entryDx=0;entryDy=0;" parent="1" source="0ZdJZjY-kdPbD8yLz9k7-7" target="0ZdJZjY-kdPbD8yLz9k7-11" edge="1">
          <mxGeometry relative="1" as="geometry" />
        </mxCell>
        <mxCell id="0ZdJZjY-kdPbD8yLz9k7-7" value="Decision:" style="rhombus;whiteSpace=wrap;html=1;rounded=1;fillColor=#d5e8d4;strokeColor=#82b366;" parent="1" vertex="1">
          <mxGeometry x="750" y="344" width="80" height="80" as="geometry" />
        </mxCell>
        <mxCell id="0ZdJZjY-kdPbD8yLz9k7-64" style="edgeStyle=orthogonalEdgeStyle;rounded=0;orthogonalLoop=1;jettySize=auto;html=1;entryX=0.5;entryY=0;entryDx=0;entryDy=0;startArrow=none;startFill=0;" parent="1" target="0ZdJZjY-kdPbD8yLz9k7-63" edge="1">
          <mxGeometry relative="1" as="geometry">
            <mxPoint x="571.0000000000002" y="399" as="sourcePoint" />
            <mxPoint x="569.5" y="436" as="targetPoint" />
          </mxGeometry>
        </mxCell>
        <mxCell id="0ZdJZjY-kdPbD8yLz9k7-9" value="Call Yaniv" style="rounded=0;whiteSpace=wrap;html=1;fillColor=#dae8fc;strokeColor=#6c8ebf;" parent="1" vertex="1">
          <mxGeometry x="510" y="369" width="120" height="30" as="geometry" />
        </mxCell>
        <mxCell id="0ZdJZjY-kdPbD8yLz9k7-33" style="edgeStyle=orthogonalEdgeStyle;rounded=0;orthogonalLoop=1;jettySize=auto;html=1;entryX=0.5;entryY=0;entryDx=0;entryDy=0;" parent="1" source="0ZdJZjY-kdPbD8yLz9k7-11" target="0ZdJZjY-kdPbD8yLz9k7-32" edge="1">
          <mxGeometry relative="1" as="geometry" />
        </mxCell>
        <mxCell id="0ZdJZjY-kdPbD8yLz9k7-11" value="Call Yaniv" style="rounded=0;whiteSpace=wrap;html=1;fillColor=#dae8fc;strokeColor=#6c8ebf;" parent="1" vertex="1">
          <mxGeometry x="966" y="369" width="120" height="30" as="geometry" />
        </mxCell>
        <mxCell id="0ZdJZjY-kdPbD8yLz9k7-35" style="edgeStyle=orthogonalEdgeStyle;rounded=0;orthogonalLoop=1;jettySize=auto;html=1;" parent="1" source="0ZdJZjY-kdPbD8yLz9k7-32" target="0ZdJZjY-kdPbD8yLz9k7-34" edge="1">
          <mxGeometry relative="1" as="geometry" />
        </mxCell>
        <mxCell id="0ZdJZjY-kdPbD8yLz9k7-32" value="Evaluate:&lt;br&gt;Draw Options" style="shape=process;whiteSpace=wrap;html=1;backgroundOutline=1;rounded=1;fillColor=#ffe6cc;strokeColor=#d79b00;" parent="1" vertex="1">
          <mxGeometry x="965" y="444" width="123" height="60" as="geometry" />
        </mxCell>
        <mxCell id="0ZdJZjY-kdPbD8yLz9k7-38" style="edgeStyle=orthogonalEdgeStyle;rounded=0;orthogonalLoop=1;jettySize=auto;html=1;exitX=0;exitY=1;exitDx=0;exitDy=0;entryX=0.5;entryY=0;entryDx=0;entryDy=0;" parent="1" source="0ZdJZjY-kdPbD8yLz9k7-34" target="0ZdJZjY-kdPbD8yLz9k7-37" edge="1">
          <mxGeometry relative="1" as="geometry" />
        </mxCell>
        <mxCell id="0ZdJZjY-kdPbD8yLz9k7-39" style="edgeStyle=orthogonalEdgeStyle;rounded=0;orthogonalLoop=1;jettySize=auto;html=1;exitX=1;exitY=1;exitDx=0;exitDy=0;entryX=0.5;entryY=0;entryDx=0;entryDy=0;" parent="1" source="0ZdJZjY-kdPbD8yLz9k7-34" target="0ZdJZjY-kdPbD8yLz9k7-40" edge="1">
          <mxGeometry relative="1" as="geometry">
            <mxPoint x="1150" y="610" as="targetPoint" />
          </mxGeometry>
        </mxCell>
        <mxCell id="0ZdJZjY-kdPbD8yLz9k7-34" value="Decision:&lt;br&gt;Play" style="rhombus;whiteSpace=wrap;html=1;rounded=1;fillColor=#d5e8d4;strokeColor=#82b366;" parent="1" vertex="1">
          <mxGeometry x="980.5" y="540" width="80" height="80" as="geometry" />
        </mxCell>
        <mxCell id="0ZdJZjY-kdPbD8yLz9k7-37" value="1-4 Card of the same Grade" style="rounded=0;whiteSpace=wrap;html=1;fillColor=#dae8fc;strokeColor=#6c8ebf;" parent="1" vertex="1">
          <mxGeometry x="845.5" y="624" width="120" height="30" as="geometry" />
        </mxCell>
        <mxCell id="0ZdJZjY-kdPbD8yLz9k7-40" value="3+ Cards in sequence" style="rounded=0;whiteSpace=wrap;html=1;fillColor=#dae8fc;strokeColor=#6c8ebf;" parent="1" vertex="1">
          <mxGeometry x="1066" y="620" width="120" height="30" as="geometry" />
        </mxCell>
        <mxCell id="0ZdJZjY-kdPbD8yLz9k7-42" style="edgeStyle=orthogonalEdgeStyle;rounded=0;orthogonalLoop=1;jettySize=auto;html=1;entryX=1;entryY=0;entryDx=0;entryDy=0;" parent="1" source="0ZdJZjY-kdPbD8yLz9k7-40" target="0ZdJZjY-kdPbD8yLz9k7-41" edge="1">
          <mxGeometry relative="1" as="geometry">
            <Array as="points">
              <mxPoint x="1126" y="720" />
            </Array>
          </mxGeometry>
        </mxCell>
        <mxCell id="0ZdJZjY-kdPbD8yLz9k7-43" style="edgeStyle=orthogonalEdgeStyle;rounded=0;orthogonalLoop=1;jettySize=auto;html=1;entryX=0;entryY=0;entryDx=0;entryDy=0;exitX=0.5;exitY=1;exitDx=0;exitDy=0;" parent="1" source="0ZdJZjY-kdPbD8yLz9k7-37" target="0ZdJZjY-kdPbD8yLz9k7-41" edge="1">
          <mxGeometry relative="1" as="geometry">
            <Array as="points">
              <mxPoint x="906" y="720" />
            </Array>
          </mxGeometry>
        </mxCell>
        <mxCell id="0ZdJZjY-kdPbD8yLz9k7-45" value="" style="edgeStyle=orthogonalEdgeStyle;rounded=0;orthogonalLoop=1;jettySize=auto;html=1;" parent="1" source="0ZdJZjY-kdPbD8yLz9k7-41" target="0ZdJZjY-kdPbD8yLz9k7-44" edge="1">
          <mxGeometry relative="1" as="geometry" />
        </mxCell>
        <mxCell id="0ZdJZjY-kdPbD8yLz9k7-47" value="" style="edgeStyle=orthogonalEdgeStyle;rounded=0;orthogonalLoop=1;jettySize=auto;html=1;" parent="1" edge="1">
          <mxGeometry relative="1" as="geometry">
            <mxPoint x="980.5" y="741" as="sourcePoint" />
            <mxPoint x="905.0000000000005" y="841" as="targetPoint" />
          </mxGeometry>
        </mxCell>
        <mxCell id="0ZdJZjY-kdPbD8yLz9k7-41" value="Decision:&lt;br&gt;Draw" style="rhombus;whiteSpace=wrap;html=1;rounded=1;fillColor=#d5e8d4;strokeColor=#82b366;" parent="1" vertex="1">
          <mxGeometry x="980.5" y="700" width="80" height="80" as="geometry" />
        </mxCell>
        <mxCell id="0ZdJZjY-kdPbD8yLz9k7-57" style="edgeStyle=orthogonalEdgeStyle;rounded=0;orthogonalLoop=1;jettySize=auto;html=1;exitX=0.5;exitY=1;exitDx=0;exitDy=0;entryX=0.5;entryY=0;entryDx=0;entryDy=0;startArrow=none;startFill=0;" parent="1" source="0ZdJZjY-kdPbD8yLz9k7-44" target="0ZdJZjY-kdPbD8yLz9k7-56" edge="1">
          <mxGeometry relative="1" as="geometry" />
        </mxCell>
        <mxCell id="0ZdJZjY-kdPbD8yLz9k7-44" value="Take Card From Deck" style="whiteSpace=wrap;html=1;rounded=1;arcSize=0;fillColor=#dae8fc;strokeColor=#6c8ebf;" parent="1" vertex="1">
          <mxGeometry x="1170" y="840" width="120" height="30" as="geometry" />
        </mxCell>
        <mxCell id="0ZdJZjY-kdPbD8yLz9k7-48" style="edgeStyle=orthogonalEdgeStyle;rounded=0;orthogonalLoop=1;jettySize=auto;html=1;exitX=0;exitY=0.5;exitDx=0;exitDy=0;entryX=0;entryY=0.5;entryDx=0;entryDy=0;verticalAlign=middle;startArrow=classic;startFill=1;" parent="1" source="0ZdJZjY-kdPbD8yLz9k7-46" target="0ZdJZjY-kdPbD8yLz9k7-32" edge="1">
          <mxGeometry relative="1" as="geometry" />
        </mxCell>
        <mxCell id="0ZdJZjY-kdPbD8yLz9k7-51" value="" style="edgeStyle=orthogonalEdgeStyle;rounded=0;orthogonalLoop=1;jettySize=auto;html=1;startArrow=none;startFill=0;" parent="1" source="0ZdJZjY-kdPbD8yLz9k7-46" target="0ZdJZjY-kdPbD8yLz9k7-50" edge="1">
          <mxGeometry relative="1" as="geometry" />
        </mxCell>
        <mxCell id="0ZdJZjY-kdPbD8yLz9k7-46" value="Take Card From Pile" style="whiteSpace=wrap;html=1;rounded=1;arcSize=0;fillColor=#dae8fc;strokeColor=#6c8ebf;" parent="1" vertex="1">
          <mxGeometry x="845" y="840" width="120" height="30" as="geometry" />
        </mxCell>
        <mxCell id="0ZdJZjY-kdPbD8yLz9k7-53" style="edgeStyle=orthogonalEdgeStyle;rounded=0;orthogonalLoop=1;jettySize=auto;html=1;exitX=0;exitY=0.5;exitDx=0;exitDy=0;entryX=0.5;entryY=0;entryDx=0;entryDy=0;startArrow=none;startFill=0;" parent="1" source="0ZdJZjY-kdPbD8yLz9k7-50" target="0ZdJZjY-kdPbD8yLz9k7-52" edge="1">
          <mxGeometry relative="1" as="geometry" />
        </mxCell>
        <mxCell id="0ZdJZjY-kdPbD8yLz9k7-54" style="edgeStyle=orthogonalEdgeStyle;rounded=0;orthogonalLoop=1;jettySize=auto;html=1;exitX=1;exitY=0.5;exitDx=0;exitDy=0;startArrow=none;startFill=0;" parent="1" source="0ZdJZjY-kdPbD8yLz9k7-50" edge="1">
          <mxGeometry relative="1" as="geometry">
            <mxPoint x="1010" y="979.9999999999998" as="targetPoint" />
          </mxGeometry>
        </mxCell>
        <mxCell id="0ZdJZjY-kdPbD8yLz9k7-50" value="Decision" style="rhombus;whiteSpace=wrap;html=1;rounded=1;arcSize=15;fillColor=#d5e8d4;strokeColor=#82b366;" parent="1" vertex="1">
          <mxGeometry x="868" y="893" width="73" height="70" as="geometry" />
        </mxCell>
        <mxCell id="0ZdJZjY-kdPbD8yLz9k7-116" style="edgeStyle=orthogonalEdgeStyle;rounded=0;jumpSize=6;orthogonalLoop=1;jettySize=auto;html=1;exitX=0.5;exitY=1;exitDx=0;exitDy=0;startArrow=none;startFill=0;entryX=0.25;entryY=0;entryDx=0;entryDy=0;" parent="1" source="0ZdJZjY-kdPbD8yLz9k7-52" target="0ZdJZjY-kdPbD8yLz9k7-119" edge="1">
          <mxGeometry relative="1" as="geometry">
            <mxPoint x="980" y="1160" as="targetPoint" />
            <Array as="points">
              <mxPoint x="830" y="1120" />
              <mxPoint x="976" y="1120" />
            </Array>
          </mxGeometry>
        </mxCell>
        <mxCell id="0ZdJZjY-kdPbD8yLz9k7-52" value="Take Card From Botton of Last Sequencee" style="whiteSpace=wrap;html=1;rounded=1;arcSize=0;fillColor=#dae8fc;strokeColor=#6c8ebf;" parent="1" vertex="1">
          <mxGeometry x="770" y="990" width="120" height="60" as="geometry" />
        </mxCell>
        <mxCell id="0ZdJZjY-kdPbD8yLz9k7-117" style="edgeStyle=orthogonalEdgeStyle;rounded=0;jumpSize=6;orthogonalLoop=1;jettySize=auto;html=1;exitX=0.5;exitY=1;exitDx=0;exitDy=0;startArrow=none;startFill=0;entryX=0.5;entryY=0;entryDx=0;entryDy=0;" parent="1" source="0ZdJZjY-kdPbD8yLz9k7-55" target="0ZdJZjY-kdPbD8yLz9k7-119" edge="1">
          <mxGeometry relative="1" as="geometry">
            <mxPoint x="1006.166666666667" y="1160" as="targetPoint" />
          </mxGeometry>
        </mxCell>
        <mxCell id="0ZdJZjY-kdPbD8yLz9k7-55" value="Take Card From Top of Pile" style="whiteSpace=wrap;html=1;rounded=1;arcSize=0;fillColor=#dae8fc;strokeColor=#6c8ebf;" parent="1" vertex="1">
          <mxGeometry x="946" y="989" width="120" height="30" as="geometry" />
        </mxCell>
        <mxCell id="0ZdJZjY-kdPbD8yLz9k7-59" value="No" style="edgeStyle=orthogonalEdgeStyle;rounded=0;orthogonalLoop=1;jettySize=auto;html=1;exitX=0.5;exitY=1;exitDx=0;exitDy=0;startArrow=none;startFill=0;entryX=0.5;entryY=0;entryDx=0;entryDy=0;" parent="1" source="0ZdJZjY-kdPbD8yLz9k7-56" target="0ZdJZjY-kdPbD8yLz9k7-58" edge="1">
          <mxGeometry relative="1" as="geometry">
            <mxPoint x="1232" y="1030" as="targetPoint" />
            <Array as="points">
              <mxPoint x="1232" y="1002" />
              <mxPoint x="1232" y="1002" />
            </Array>
          </mxGeometry>
        </mxCell>
        <mxCell id="0ZdJZjY-kdPbD8yLz9k7-60" style="edgeStyle=orthogonalEdgeStyle;rounded=0;orthogonalLoop=1;jettySize=auto;html=1;exitX=1;exitY=0.5;exitDx=0;exitDy=0;startArrow=none;startFill=0;entryX=0.5;entryY=0;entryDx=0;entryDy=0;" parent="1" source="0ZdJZjY-kdPbD8yLz9k7-56" target="0ZdJZjY-kdPbD8yLz9k7-61" edge="1">
          <mxGeometry relative="1" as="geometry">
            <mxPoint x="1330" y="932.6666666666667" as="targetPoint" />
          </mxGeometry>
        </mxCell>
        <mxCell id="0ZdJZjY-kdPbD8yLz9k7-56" value="Evaluate:&lt;br&gt;Deck Empty?" style="shape=process;whiteSpace=wrap;html=1;backgroundOutline=1;rounded=1;" parent="1" vertex="1">
          <mxGeometry x="1170" y="903" width="123" height="60" as="geometry" />
        </mxCell>
        <mxCell id="0ZdJZjY-kdPbD8yLz9k7-118" style="edgeStyle=orthogonalEdgeStyle;rounded=0;jumpSize=6;orthogonalLoop=1;jettySize=auto;html=1;exitX=0.5;exitY=1;exitDx=0;exitDy=0;startArrow=none;startFill=0;entryX=0.75;entryY=0;entryDx=0;entryDy=0;" parent="1" source="0ZdJZjY-kdPbD8yLz9k7-58" target="0ZdJZjY-kdPbD8yLz9k7-119" edge="1">
          <mxGeometry relative="1" as="geometry">
            <mxPoint x="1030" y="1160" as="targetPoint" />
          </mxGeometry>
        </mxCell>
        <mxCell id="0ZdJZjY-kdPbD8yLz9k7-58" value="Process &lt;br&gt;Hand Out Card" style="rounded=1;whiteSpace=wrap;html=1;fillColor=#fff2cc;strokeColor=#d6b656;" parent="1" vertex="1">
          <mxGeometry x="1172" y="1040" width="120" height="31" as="geometry" />
        </mxCell>
        <mxCell id="0ZdJZjY-kdPbD8yLz9k7-62" style="edgeStyle=orthogonalEdgeStyle;rounded=0;orthogonalLoop=1;jettySize=auto;html=1;exitX=0.5;exitY=1;exitDx=0;exitDy=0;entryX=1;entryY=0.5;entryDx=0;entryDy=0;startArrow=none;startFill=0;" parent="1" source="0ZdJZjY-kdPbD8yLz9k7-61" target="0ZdJZjY-kdPbD8yLz9k7-58" edge="1">
          <mxGeometry relative="1" as="geometry" />
        </mxCell>
        <mxCell id="0ZdJZjY-kdPbD8yLz9k7-61" value="Process &lt;br&gt;Shuffle Deck" style="rounded=1;whiteSpace=wrap;html=1;fillColor=#fff2cc;strokeColor=#d6b656;" parent="1" vertex="1">
          <mxGeometry x="1293" y="980" width="120" height="31" as="geometry" />
        </mxCell>
        <mxCell id="0ZdJZjY-kdPbD8yLz9k7-66" value="" style="edgeStyle=orthogonalEdgeStyle;rounded=0;orthogonalLoop=1;jettySize=auto;html=1;startArrow=none;startFill=0;" parent="1" source="0ZdJZjY-kdPbD8yLz9k7-63" target="0ZdJZjY-kdPbD8yLz9k7-65" edge="1">
          <mxGeometry relative="1" as="geometry" />
        </mxCell>
        <mxCell id="0ZdJZjY-kdPbD8yLz9k7-63" value="Evaluate:&lt;br&gt;Scores" style="shape=process;whiteSpace=wrap;html=1;backgroundOutline=1;rounded=1;fillColor=#ffe6cc;strokeColor=#d79b00;" parent="1" vertex="1">
          <mxGeometry x="509" y="444" width="123" height="60" as="geometry" />
        </mxCell>
        <mxCell id="0ZdJZjY-kdPbD8yLz9k7-70" style="edgeStyle=orthogonalEdgeStyle;rounded=0;orthogonalLoop=1;jettySize=auto;html=1;exitX=0.5;exitY=1;exitDx=0;exitDy=0;entryX=0.5;entryY=0;entryDx=0;entryDy=0;startArrow=none;startFill=0;" parent="1" source="0ZdJZjY-kdPbD8yLz9k7-65" target="0ZdJZjY-kdPbD8yLz9k7-69" edge="1">
          <mxGeometry relative="1" as="geometry" />
        </mxCell>
        <mxCell id="0ZdJZjY-kdPbD8yLz9k7-65" value="Evaluate:&lt;br&gt;Yaniv?&lt;br&gt;Assaf?" style="shape=process;whiteSpace=wrap;html=1;backgroundOutline=1;rounded=1;fillColor=#ffe6cc;strokeColor=#d79b00;" parent="1" vertex="1">
          <mxGeometry x="509" y="560" width="123" height="60" as="geometry" />
        </mxCell>
        <mxCell id="0ZdJZjY-kdPbD8yLz9k7-73" style="edgeStyle=orthogonalEdgeStyle;rounded=0;orthogonalLoop=1;jettySize=auto;html=1;exitX=0.5;exitY=1;exitDx=0;exitDy=0;entryX=0.5;entryY=0;entryDx=0;entryDy=0;startArrow=none;startFill=0;" parent="1" source="0ZdJZjY-kdPbD8yLz9k7-69" target="0ZdJZjY-kdPbD8yLz9k7-71" edge="1">
          <mxGeometry relative="1" as="geometry" />
        </mxCell>
        <mxCell id="0ZdJZjY-kdPbD8yLz9k7-69" value="Process&amp;nbsp;&lt;br&gt;Give Out Point" style="rounded=1;whiteSpace=wrap;html=1;fillColor=#fff2cc;strokeColor=#d6b656;" parent="1" vertex="1">
          <mxGeometry x="510" y="669" width="120" height="51" as="geometry" />
        </mxCell>
        <mxCell id="0ZdJZjY-kdPbD8yLz9k7-74" style="edgeStyle=orthogonalEdgeStyle;rounded=0;orthogonalLoop=1;jettySize=auto;html=1;exitX=0.5;exitY=1;exitDx=0;exitDy=0;startArrow=none;startFill=0;entryX=0.5;entryY=0;entryDx=0;entryDy=0;" parent="1" source="0ZdJZjY-kdPbD8yLz9k7-71" target="0ZdJZjY-kdPbD8yLz9k7-75" edge="1">
          <mxGeometry relative="1" as="geometry">
            <mxPoint x="570.1666666666667" y="860" as="targetPoint" />
          </mxGeometry>
        </mxCell>
        <mxCell id="0ZdJZjY-kdPbD8yLz9k7-92" style="edgeStyle=orthogonalEdgeStyle;rounded=0;orthogonalLoop=1;jettySize=auto;html=1;exitX=0.5;exitY=0;exitDx=0;exitDy=0;startArrow=none;startFill=0;entryX=0.5;entryY=1;entryDx=0;entryDy=0;" parent="1" source="0ZdJZjY-kdPbD8yLz9k7-83" target="0ZdJZjY-kdPbD8yLz9k7-93" edge="1">
          <mxGeometry relative="1" as="geometry">
            <mxPoint x="329.9999999999998" y="690" as="targetPoint" />
          </mxGeometry>
        </mxCell>
        <mxCell id="0ZdJZjY-kdPbD8yLz9k7-111" style="edgeStyle=orthogonalEdgeStyle;rounded=0;jumpSize=6;orthogonalLoop=1;jettySize=auto;html=1;exitX=0;exitY=0.5;exitDx=0;exitDy=0;entryX=0.5;entryY=1;entryDx=0;entryDy=0;startArrow=none;startFill=0;" parent="1" edge="1">
          <mxGeometry relative="1" as="geometry">
            <mxPoint x="509.0000000000002" y="790" as="sourcePoint" />
            <mxPoint x="329.0000000000002" y="931" as="targetPoint" />
            <Array as="points">
              <mxPoint x="449" y="790" />
              <mxPoint x="449" y="980" />
              <mxPoint x="329" y="980" />
            </Array>
          </mxGeometry>
        </mxCell>
        <mxCell id="0ZdJZjY-kdPbD8yLz9k7-71" value="Evaluate:&lt;br&gt;Someone Lost?&lt;br&gt;Someone won?" style="shape=process;whiteSpace=wrap;html=1;backgroundOutline=1;rounded=1;" parent="1" vertex="1">
          <mxGeometry x="509" y="760" width="123" height="60" as="geometry" />
        </mxCell>
        <mxCell id="0ZdJZjY-kdPbD8yLz9k7-78" value="" style="edgeStyle=orthogonalEdgeStyle;rounded=0;orthogonalLoop=1;jettySize=auto;html=1;startArrow=none;startFill=0;" parent="1" source="0ZdJZjY-kdPbD8yLz9k7-75" target="0ZdJZjY-kdPbD8yLz9k7-77" edge="1">
          <mxGeometry relative="1" as="geometry" />
        </mxCell>
        <mxCell id="0ZdJZjY-kdPbD8yLz9k7-75" value="Process&amp;nbsp;&lt;br&gt;Show Scoring" style="rounded=1;whiteSpace=wrap;html=1;fillColor=#fff2cc;strokeColor=#d6b656;" parent="1" vertex="1">
          <mxGeometry x="511" y="862" width="120" height="51" as="geometry" />
        </mxCell>
        <mxCell id="0ZdJZjY-kdPbD8yLz9k7-80" value="" style="edgeStyle=orthogonalEdgeStyle;rounded=0;orthogonalLoop=1;jettySize=auto;html=1;startArrow=none;startFill=0;" parent="1" source="0ZdJZjY-kdPbD8yLz9k7-77" target="0ZdJZjY-kdPbD8yLz9k7-79" edge="1">
          <mxGeometry relative="1" as="geometry" />
        </mxCell>
        <mxCell id="0ZdJZjY-kdPbD8yLz9k7-87" style="edgeStyle=orthogonalEdgeStyle;rounded=0;orthogonalLoop=1;jettySize=auto;html=1;exitX=0;exitY=0.5;exitDx=0;exitDy=0;entryX=0.5;entryY=1;entryDx=0;entryDy=0;startArrow=none;startFill=0;" parent="1" source="0ZdJZjY-kdPbD8yLz9k7-77" target="0ZdJZjY-kdPbD8yLz9k7-86" edge="1">
          <mxGeometry relative="1" as="geometry" />
        </mxCell>
        <mxCell id="0ZdJZjY-kdPbD8yLz9k7-109" style="edgeStyle=orthogonalEdgeStyle;rounded=0;orthogonalLoop=1;jettySize=auto;html=1;exitX=0;exitY=0;exitDx=0;exitDy=0;startArrow=none;startFill=0;entryX=0;entryY=0.75;entryDx=0;entryDy=0;" parent="1" source="0ZdJZjY-kdPbD8yLz9k7-77" target="0ZdJZjY-kdPbD8yLz9k7-71" edge="1">
          <mxGeometry relative="1" as="geometry">
            <mxPoint x="470" y="810" as="targetPoint" />
            <Array as="points">
              <mxPoint x="489" y="976" />
              <mxPoint x="489" y="805" />
            </Array>
          </mxGeometry>
        </mxCell>
        <mxCell id="0ZdJZjY-kdPbD8yLz9k7-77" value="Decision&lt;br&gt;Play Again?" style="rhombus;whiteSpace=wrap;html=1;rounded=1;fillColor=#d5e8d4;strokeColor=#82b366;" parent="1" vertex="1">
          <mxGeometry x="515.5" y="955.5" width="109" height="80" as="geometry" />
        </mxCell>
        <mxCell id="0ZdJZjY-kdPbD8yLz9k7-82" style="edgeStyle=orthogonalEdgeStyle;rounded=0;orthogonalLoop=1;jettySize=auto;html=1;exitX=0.5;exitY=1;exitDx=0;exitDy=0;entryX=0.5;entryY=0;entryDx=0;entryDy=0;startArrow=none;startFill=0;" parent="1" source="0ZdJZjY-kdPbD8yLz9k7-79" target="0ZdJZjY-kdPbD8yLz9k7-81" edge="1">
          <mxGeometry relative="1" as="geometry" />
        </mxCell>
        <mxCell id="0ZdJZjY-kdPbD8yLz9k7-79" value="Quit" style="whiteSpace=wrap;html=1;rounded=1;arcSize=0;fillColor=#dae8fc;strokeColor=#6c8ebf;" parent="1" vertex="1">
          <mxGeometry x="511.5" y="1064" width="120" height="25" as="geometry" />
        </mxCell>
        <mxCell id="0ZdJZjY-kdPbD8yLz9k7-81" value="Process&amp;nbsp;&lt;br&gt;Show Winner" style="rounded=1;whiteSpace=wrap;html=1;fillColor=#fff2cc;strokeColor=#d6b656;" parent="1" vertex="1">
          <mxGeometry x="511" y="1132" width="120" height="51" as="geometry" />
        </mxCell>
        <mxCell id="0ZdJZjY-kdPbD8yLz9k7-83" value="New Round" style="whiteSpace=wrap;html=1;rounded=1;arcSize=0;fillColor=#dae8fc;strokeColor=#6c8ebf;" parent="1" vertex="1">
          <mxGeometry x="270" y="906" width="120" height="25" as="geometry" />
        </mxCell>
        <mxCell id="0ZdJZjY-kdPbD8yLz9k7-96" style="edgeStyle=orthogonalEdgeStyle;rounded=0;orthogonalLoop=1;jettySize=auto;html=1;exitX=0.5;exitY=0;exitDx=0;exitDy=0;entryX=0.5;entryY=1;entryDx=0;entryDy=0;startArrow=none;startFill=0;" parent="1" source="0ZdJZjY-kdPbD8yLz9k7-86" target="0ZdJZjY-kdPbD8yLz9k7-94" edge="1">
          <mxGeometry relative="1" as="geometry" />
        </mxCell>
        <mxCell id="0ZdJZjY-kdPbD8yLz9k7-86" value="New Game" style="whiteSpace=wrap;html=1;rounded=1;arcSize=0;fillColor=#dae8fc;strokeColor=#6c8ebf;" parent="1" vertex="1">
          <mxGeometry x="110" y="906" width="120" height="25" as="geometry" />
        </mxCell>
        <mxCell id="0ZdJZjY-kdPbD8yLz9k7-102" style="edgeStyle=orthogonalEdgeStyle;rounded=0;orthogonalLoop=1;jettySize=auto;html=1;exitX=0.5;exitY=0;exitDx=0;exitDy=0;entryX=0.5;entryY=1;entryDx=0;entryDy=0;startArrow=none;startFill=0;" parent="1" source="0ZdJZjY-kdPbD8yLz9k7-93" target="0ZdJZjY-kdPbD8yLz9k7-99" edge="1">
          <mxGeometry relative="1" as="geometry" />
        </mxCell>
        <mxCell id="0ZdJZjY-kdPbD8yLz9k7-93" value="Process&amp;nbsp;&lt;br&gt;Update/Keep Score" style="rounded=1;whiteSpace=wrap;html=1;fillColor=#fff2cc;strokeColor=#d6b656;" parent="1" vertex="1">
          <mxGeometry x="270" y="622" width="120" height="51" as="geometry" />
        </mxCell>
        <mxCell id="0ZdJZjY-kdPbD8yLz9k7-101" style="edgeStyle=orthogonalEdgeStyle;rounded=0;orthogonalLoop=1;jettySize=auto;html=1;exitX=0.5;exitY=0;exitDx=0;exitDy=0;entryX=0.5;entryY=1;entryDx=0;entryDy=0;startArrow=none;startFill=0;" parent="1" source="0ZdJZjY-kdPbD8yLz9k7-94" target="0ZdJZjY-kdPbD8yLz9k7-100" edge="1">
          <mxGeometry relative="1" as="geometry" />
        </mxCell>
        <mxCell id="0ZdJZjY-kdPbD8yLz9k7-94" value="Reset Score" style="rounded=1;whiteSpace=wrap;html=1;fillColor=#fff2cc;strokeColor=#d6b656;" parent="1" vertex="1">
          <mxGeometry x="110" y="620" width="120" height="51" as="geometry" />
        </mxCell>
        <mxCell id="0ZdJZjY-kdPbD8yLz9k7-129" style="edgeStyle=orthogonalEdgeStyle;rounded=0;jumpSize=6;orthogonalLoop=1;jettySize=auto;html=1;exitX=0.5;exitY=0;exitDx=0;exitDy=0;entryX=0;entryY=0.5;entryDx=0;entryDy=0;startArrow=none;startFill=0;" parent="1" source="0ZdJZjY-kdPbD8yLz9k7-99" target="0ZdJZjY-kdPbD8yLz9k7-123" edge="1">
          <mxGeometry relative="1" as="geometry" />
        </mxCell>
        <mxCell id="0ZdJZjY-kdPbD8yLz9k7-99" value="Evaluate:&lt;br&gt;Number of Players" style="shape=process;whiteSpace=wrap;html=1;backgroundOutline=1;rounded=1;fillColor=#ffe6cc;strokeColor=#d79b00;" parent="1" vertex="1">
          <mxGeometry x="268" y="290" width="123" height="60" as="geometry" />
        </mxCell>
        <mxCell id="0ZdJZjY-kdPbD8yLz9k7-130" style="edgeStyle=orthogonalEdgeStyle;rounded=0;jumpSize=6;orthogonalLoop=1;jettySize=auto;html=1;exitX=0.5;exitY=0;exitDx=0;exitDy=0;entryX=0;entryY=0.5;entryDx=0;entryDy=0;startArrow=none;startFill=0;" parent="1" source="0ZdJZjY-kdPbD8yLz9k7-100" target="0ZdJZjY-kdPbD8yLz9k7-123" edge="1">
          <mxGeometry relative="1" as="geometry" />
        </mxCell>
        <mxCell id="0ZdJZjY-kdPbD8yLz9k7-100" value="Decision&lt;br&gt;Number of Players" style="rhombus;whiteSpace=wrap;html=1;rounded=1;arcSize=15;fillColor=#d5e8d4;strokeColor=#82b366;" parent="1" vertex="1">
          <mxGeometry x="119" y="277" width="100" height="90" as="geometry" />
        </mxCell>
        <mxCell id="0ZdJZjY-kdPbD8yLz9k7-120" style="edgeStyle=orthogonalEdgeStyle;rounded=0;jumpSize=6;orthogonalLoop=1;jettySize=auto;html=1;exitX=1;exitY=0.5;exitDx=0;exitDy=0;startArrow=none;startFill=0;entryX=1;entryY=0.5;entryDx=0;entryDy=0;" parent="1" source="0ZdJZjY-kdPbD8yLz9k7-119" target="0ZdJZjY-kdPbD8yLz9k7-2" edge="1">
          <mxGeometry relative="1" as="geometry">
            <mxPoint x="1450" y="90" as="targetPoint" />
            <Array as="points">
              <mxPoint x="1440" y="1200" />
              <mxPoint x="1440" y="118" />
            </Array>
          </mxGeometry>
        </mxCell>
        <mxCell id="0ZdJZjY-kdPbD8yLz9k7-119" value="Change Turn" style="rounded=1;whiteSpace=wrap;html=1;fillColor=#fff2cc;strokeColor=#d6b656;" parent="1" vertex="1">
          <mxGeometry x="946" y="1170" width="120" height="60" as="geometry" />
        </mxCell>
        <mxCell id="0ZdJZjY-kdPbD8yLz9k7-125" style="edgeStyle=orthogonalEdgeStyle;rounded=0;jumpSize=6;orthogonalLoop=1;jettySize=auto;html=1;exitX=0.75;exitY=1;exitDx=0;exitDy=0;entryX=0.5;entryY=0;entryDx=0;entryDy=0;startArrow=none;startFill=0;" parent="1" source="0ZdJZjY-kdPbD8yLz9k7-123" target="0ZdJZjY-kdPbD8yLz9k7-124" edge="1">
          <mxGeometry relative="1" as="geometry" />
        </mxCell>
        <mxCell id="0ZdJZjY-kdPbD8yLz9k7-127" style="edgeStyle=orthogonalEdgeStyle;rounded=0;jumpSize=6;orthogonalLoop=1;jettySize=auto;html=1;exitX=0.25;exitY=1;exitDx=0;exitDy=0;startArrow=none;startFill=0;entryX=0.5;entryY=0;entryDx=0;entryDy=0;" parent="1" source="0ZdJZjY-kdPbD8yLz9k7-123" target="0ZdJZjY-kdPbD8yLz9k7-128" edge="1">
          <mxGeometry relative="1" as="geometry">
            <mxPoint x="655" y="-120" as="targetPoint" />
          </mxGeometry>
        </mxCell>
        <mxCell id="0ZdJZjY-kdPbD8yLz9k7-123" value="Start New Round" style="rounded=1;whiteSpace=wrap;html=1;fillColor=#fff2cc;strokeColor=#d6b656;" parent="1" vertex="1">
          <mxGeometry x="624.5" y="-250" width="120" height="60" as="geometry" />
        </mxCell>
        <mxCell id="0ZdJZjY-kdPbD8yLz9k7-126" style="edgeStyle=orthogonalEdgeStyle;rounded=0;jumpSize=6;orthogonalLoop=1;jettySize=auto;html=1;exitX=0.5;exitY=1;exitDx=0;exitDy=0;entryX=0.5;entryY=0;entryDx=0;entryDy=0;startArrow=none;startFill=0;" parent="1" source="0ZdJZjY-kdPbD8yLz9k7-124" target="0ZdJZjY-kdPbD8yLz9k7-2" edge="1">
          <mxGeometry relative="1" as="geometry" />
        </mxCell>
        <mxCell id="0ZdJZjY-kdPbD8yLz9k7-124" value="Evaluate:&lt;br&gt;First Player" style="shape=process;whiteSpace=wrap;html=1;backgroundOutline=1;rounded=1;fillColor=#fff2cc;strokeColor=#d6b656;" parent="1" vertex="1">
          <mxGeometry x="843" y="-60" width="123" height="60" as="geometry" />
        </mxCell>
        <mxCell id="0ZdJZjY-kdPbD8yLz9k7-128" value="Process&amp;nbsp;&lt;br&gt;Restart Deck&amp;nbsp;&lt;br&gt;Pull First Card" style="rounded=1;whiteSpace=wrap;html=1;fillColor=#fff2cc;strokeColor=#d6b656;" parent="1" vertex="1">
          <mxGeometry x="595" y="-111" width="120" height="51" as="geometry" />
        </mxCell>
        <mxCell id="0ZdJZjY-kdPbD8yLz9k7-132" style="edgeStyle=orthogonalEdgeStyle;rounded=0;jumpSize=6;orthogonalLoop=1;jettySize=auto;html=1;exitX=0.5;exitY=1;exitDx=0;exitDy=0;startArrow=none;startFill=0;" parent="1" source="0ZdJZjY-kdPbD8yLz9k7-131" target="0ZdJZjY-kdPbD8yLz9k7-123" edge="1">
          <mxGeometry relative="1" as="geometry" />
        </mxCell>
        <mxCell id="0ZdJZjY-kdPbD8yLz9k7-131" value="Start New Game" style="rounded=1;whiteSpace=wrap;html=1;fillColor=#fff2cc;strokeColor=#d6b656;" parent="1" vertex="1">
          <mxGeometry x="624.5" y="-450" width="120" height="60" as="geometry" />
        </mxCell>
        <mxCell id="0ZdJZjY-kdPbD8yLz9k7-133" value="Evaluate:&lt;br&gt;Deck Empty?" style="shape=process;whiteSpace=wrap;html=1;backgroundOutline=1;rounded=1;" parent="1" vertex="1">
          <mxGeometry x="1170" y="903" width="123" height="60" as="geometry" />
        </mxCell>
        <mxCell id="0ZdJZjY-kdPbD8yLz9k7-134" value="Evaluate:&lt;br&gt;Someone Lost?&lt;br&gt;Someone won?" style="shape=process;whiteSpace=wrap;html=1;backgroundOutline=1;rounded=1;" parent="1" vertex="1">
          <mxGeometry x="509" y="760" width="123" height="60" as="geometry" />
        </mxCell>
        <mxCell id="0ZdJZjY-kdPbD8yLz9k7-135" value="Evaluate:&lt;br&gt;Deck Empty?" style="shape=process;whiteSpace=wrap;html=1;backgroundOutline=1;rounded=1;fillColor=#ffe6cc;strokeColor=#d79b00;" parent="1" vertex="1">
          <mxGeometry x="1170" y="903" width="123" height="60" as="geometry" />
        </mxCell>
        <mxCell id="0ZdJZjY-kdPbD8yLz9k7-136" value="Evaluate:&lt;br&gt;Someone Lost?&lt;br&gt;Someone won?" style="shape=process;whiteSpace=wrap;html=1;backgroundOutline=1;rounded=1;fillColor=#ffe6cc;strokeColor=#d79b00;" parent="1" vertex="1">
          <mxGeometry x="509" y="760" width="123" height="60" as="geometry" />
        </mxCell>
      </root>
    </mxGraphModel>
  </diagram>
</mxfile>
